<svg width="1389" height="230" viewBox="0 0 1389 230" fill="none" xmlns="http://www.w3.org/2000/svg">
<path d="M0.896 187V0.375992H24.704V82.552H155.776V0.375992H179.584V187H155.776V102.264H24.704V187H0.896ZM209.556 229.752V211.064H226.196C234.729 211.064 241.3 209.357 245.908 205.944C250.516 202.701 254.356 197.923 257.428 191.608L264.084 178.04L198.804 52.6H223.892L264.34 134.52L274.58 155.256H276.372L286.1 134.008L323.988 52.6H348.308L276.884 199.032C271.764 209.613 265.279 217.379 257.428 222.328C249.577 227.277 239.593 229.752 227.476 229.752H209.556ZM415.038 189.304C401.726 189.304 390.035 186.488 379.966 180.856C369.897 175.053 362.046 166.947 356.414 156.536C350.782 146.125 347.966 133.923 347.966 119.928C347.966 105.592 350.782 93.2187 356.414 82.808C362.046 72.3973 369.897 64.4613 379.966 59C390.035 53.368 401.726 50.552 415.038 50.552C429.203 50.552 441.15 53.2827 450.878 58.744C460.777 64.0347 467.774 71.032 471.87 79.736H473.15L473.918 52.6H495.678V187H472.894V158.072H471.614C467.347 167.459 460.094 175.053 449.854 180.856C439.785 186.488 428.179 189.304 415.038 189.304ZM420.926 171.128C431.849 171.128 441.15 168.995 448.83 164.728C456.681 160.291 462.654 154.573 466.75 147.576C470.846 140.579 472.894 132.984 472.894 124.792V113.016C472.894 105.165 470.846 97.912 466.75 91.256C462.654 84.4293 456.681 78.968 448.83 74.872C441.15 70.776 431.849 68.728 420.926 68.728C406.078 68.728 394.046 73.1653 384.83 82.04C375.614 90.9147 371.006 103.544 371.006 119.928C371.006 135.459 375.529 147.917 384.574 157.304C393.79 166.52 405.907 171.128 420.926 171.128ZM586.008 189.56C565.016 189.56 548.632 185.549 536.856 177.528C525.08 169.336 519.021 158.499 518.68 145.016H541.464C541.635 154.061 545.645 161.229 553.496 166.52C561.517 171.64 572.525 174.2 586.52 174.2C599.149 174.2 609.219 172.408 616.728 168.824C624.408 165.069 628.248 159.267 628.248 151.416C628.248 145.613 626.883 141.176 624.152 138.104C621.421 135.032 616.899 132.728 610.584 131.192C604.269 129.485 595.565 128.12 584.472 127.096C563.309 125.048 547.864 121.379 538.136 116.088C528.408 110.797 523.544 101.923 523.544 89.464C523.544 77.3467 529.091 67.7893 540.184 60.792C551.448 53.624 566.552 50.04 585.496 50.04C604.781 50.04 619.629 53.7947 630.04 61.304C640.451 68.8133 646.253 79.1387 647.448 92.28H625.432C624.579 82.8933 620.483 76.152 613.144 72.056C605.805 67.7893 596.589 65.656 585.496 65.656C574.061 65.656 564.589 67.448 557.08 71.032C549.741 74.4453 546.072 80.0773 546.072 87.928C546.072 95.2667 549.4 100.387 556.056 103.288C562.712 106.189 573.549 108.408 588.568 109.944C603.245 111.309 615.107 113.272 624.152 115.832C633.368 118.392 640.109 122.317 644.376 127.608C648.813 132.728 651.032 140.067 651.032 149.624C651.032 161.571 645.656 171.213 634.904 178.552C624.152 185.891 607.853 189.56 586.008 189.56Z" fill="white"/>
<path d="M700.216 187V0.375992H788.024C809.187 0.375992 826.936 4.30133 841.272 12.152C855.779 19.832 866.701 30.6693 874.04 44.664C881.549 58.6587 885.304 75.0427 885.304 93.816C885.304 113.784 881.293 130.68 873.272 144.504C865.421 158.328 854.243 168.909 839.736 176.248C825.229 183.416 807.992 187 788.024 187H700.216ZM737.848 157.304H781.112C803.469 157.304 820.024 151.587 830.776 140.152C841.699 128.717 847.16 113.016 847.16 93.048C847.16 71.2027 841.101 55.2453 828.984 45.176C817.037 34.936 801.08 29.816 781.112 29.816H737.848V157.304ZM981.42 189.56C965.377 189.56 951.297 186.744 939.18 181.112C927.063 175.48 917.591 167.373 910.764 156.792C904.108 146.211 900.78 133.581 900.78 118.904C900.78 104.227 904.108 91.6827 910.764 81.272C917.42 70.6907 926.807 62.584 938.924 56.952C951.041 51.1493 965.207 48.248 981.42 48.248C997.633 48.248 1011.8 51.064 1023.92 56.696C1036.03 62.328 1045.42 70.4347 1052.08 81.016C1058.73 91.4267 1062.06 104.056 1062.06 118.904C1062.06 133.411 1058.73 145.955 1052.08 156.536C1045.42 167.117 1036.03 175.309 1023.92 181.112C1011.97 186.744 997.804 189.56 981.42 189.56ZM981.42 161.4C995.244 161.4 1006.08 157.56 1013.93 149.88C1021.78 142.2 1025.71 131.875 1025.71 118.904C1025.71 105.763 1021.78 95.4373 1013.93 87.928C1006.25 80.248 995.415 76.408 981.42 76.408C967.596 76.408 956.759 80.248 948.908 87.928C941.228 95.608 937.388 105.933 937.388 118.904C937.388 131.875 941.228 142.2 948.908 149.88C956.759 157.56 967.596 161.4 981.42 161.4ZM1156.37 189.304C1140.16 189.304 1126.16 186.403 1114.39 180.6C1102.61 174.797 1093.57 166.605 1087.25 156.024C1080.94 145.443 1077.78 132.984 1077.78 118.648C1077.78 104.141 1081.11 91.6827 1087.76 81.272C1094.59 70.6907 1103.98 62.584 1115.92 56.952C1128.04 51.1493 1142.12 48.248 1158.16 48.248C1172.5 48.248 1185.04 50.3813 1195.8 54.648C1206.72 58.9147 1215.42 64.9733 1221.91 72.824C1228.39 80.504 1232.06 89.464 1232.92 99.704H1196.82C1194.77 92.1947 1190.25 86.4773 1183.25 82.552C1176.43 78.456 1167.98 76.408 1157.91 76.408C1144.43 76.408 1133.76 80.3333 1125.91 88.184C1118.06 95.864 1114.13 106.019 1114.13 118.648C1114.13 132.131 1117.97 142.627 1125.65 150.136C1133.5 157.475 1144.17 161.144 1157.65 161.144C1167.55 161.144 1176.08 159.011 1183.25 154.744C1190.59 150.307 1195.28 144.333 1197.33 136.824H1233.68C1232.66 147.576 1228.56 156.877 1221.4 164.728C1214.23 172.579 1205.01 178.637 1193.75 182.904C1182.48 187.171 1170.03 189.304 1156.37 189.304ZM1317.91 189.56C1295.21 189.56 1277.81 185.464 1265.69 177.272C1253.57 169.08 1247.09 157.987 1246.23 143.992H1281.82C1282.84 159.352 1295.21 167.032 1318.94 167.032C1329.35 167.032 1337.54 165.667 1343.51 162.936C1349.49 160.035 1352.47 155.512 1352.47 149.368C1352.47 144.76 1351.36 141.347 1349.14 139.128C1346.93 136.739 1343.17 134.947 1337.88 133.752C1332.59 132.557 1325.25 131.533 1315.86 130.68C1300.33 129.144 1287.79 127.011 1278.23 124.28C1268.67 121.379 1261.68 117.283 1257.24 111.992C1252.97 106.701 1250.84 99.6187 1250.84 90.744C1250.84 77.7733 1256.73 67.448 1268.5 59.768C1280.45 52.088 1297.01 48.248 1318.17 48.248C1337.79 48.248 1353.41 52.0027 1365.02 59.512C1376.62 67.0213 1383.02 77.688 1384.22 91.512H1349.66C1348.97 84.344 1345.73 79.0533 1339.93 75.64C1334.13 72.2267 1326.79 70.52 1317.91 70.52C1308.53 70.52 1300.85 71.9707 1294.87 74.872C1289.07 77.6027 1286.17 81.9547 1286.17 87.928C1286.17 93.9013 1289.07 97.912 1294.87 99.96C1300.67 102.008 1310.15 103.715 1323.29 105.08C1338.99 106.445 1351.62 108.579 1361.18 111.48C1370.73 114.211 1377.65 118.392 1381.91 124.024C1386.18 129.485 1388.31 137.165 1388.31 147.064C1388.31 159.864 1382.51 170.189 1370.9 178.04C1359.47 185.72 1341.81 189.56 1317.91 189.56Z" fill="#BDC3FF"/>
</svg>
